<svg width="102" height="112" viewBox="0 0 102 112" fill="none" xmlns="http://www.w3.org/2000/svg">
<g clip-path="url(#clip0)">
<g filter="url(#filter0_i)">
<ellipse cx="51" cy="80.5" rx="51" ry="28.5" fill="black"/>
</g>
<g filter="url(#filter1_d)">
<path fill-rule="evenodd" clip-rule="evenodd" d="M77.7017 45.2618L77.7017 29.1113L77.7017 28.9651L75.305 25.8975L78.1729 13.7632L94.464 49.1783L94.4329 49.3101L78.8618 45.63C78.4603 45.5351 78.073 45.4115 77.7017 45.2618Z" fill="black"/>
<path fill-rule="evenodd" clip-rule="evenodd" d="M25 87.3971C25.9612 88.2563 27.1443 88.8948 28.4872 89.2122L74.2271 100.022C78.5269 101.039 82.8364 98.3767 83.8526 94.0769L94.4328 49.3101L78.8618 45.6301C78.4602 45.5352 78.073 45.4116 77.7016 45.2619V78.7622C77.7016 83.5311 73.8357 87.3971 69.0667 87.3971H25ZM75.3049 25.8975L78.2063 13.6212L62.8844 10L75.3049 25.8975Z" fill="white"/>
</g>
<g filter="url(#filter2_d)">
<path d="M20 0C15.5817 0 12 3.58172 12 8V77C12 81.4183 15.5817 85 20 85H67C71.4183 85 75 81.4183 75 77V31H59C54.5817 31 51 27.4183 51 23V0H20Z" fill="white"/>
<path d="M51 0.145996V23C51 27.4183 54.5817 31 59 31H75V30.8646L51 0.145996Z" fill="black"/>
</g>
<line x1="26" y1="47" x2="54" y2="47" stroke="black" stroke-width="4" stroke-linecap="round"/>
<line x1="26" y1="56" x2="39" y2="56" stroke="black" stroke-width="4" stroke-linecap="round"/>
<line x1="26" y1="64" x2="61" y2="64" stroke="black" stroke-width="4" stroke-linecap="round"/>
</g>
<defs>
<filter id="filter0_i" x="0" y="52" width="102" height="64" filterUnits="userSpaceOnUse" color-interpolation-filters="sRGB">
<feFlood flood-opacity="0" result="BackgroundImageFix"/>
<feBlend mode="normal" in="SourceGraphic" in2="BackgroundImageFix" result="shape"/>
<feColorMatrix in="SourceAlpha" type="matrix" values="0 0 0 0 0 0 0 0 0 0 0 0 0 0 0 0 0 0 127 0" result="hardAlpha"/>
<feMorphology radius="1" operator="erode" in="SourceAlpha" result="effect1_innerShadow"/>
<feOffset dy="12"/>
<feGaussianBlur stdDeviation="3"/>
<feComposite in2="hardAlpha" operator="arithmetic" k2="-1" k3="1"/>
<feColorMatrix type="matrix" values="0 0 0 0 0 0 0 0 0 0 0 0 0 0 0 0 0 0 0.25 0"/>
<feBlend mode="normal" in2="shape" result="effect1_innerShadow"/>
</filter>
<filter id="filter1_d" x="25" y="10" width="85.5294" height="102.239" filterUnits="userSpaceOnUse" color-interpolation-filters="sRGB">
<feFlood flood-opacity="0" result="BackgroundImageFix"/>
<feColorMatrix in="SourceAlpha" type="matrix" values="0 0 0 0 0 0 0 0 0 0 0 0 0 0 0 0 0 0 127 0" result="hardAlpha"/>
<feOffset dx="5" dy="8"/>
<feGaussianBlur stdDeviation="2"/>
<feColorMatrix type="matrix" values="0 0 0 0 0 0 0 0 0 0 0 0 0 0 0 0 0 0 0.25 0"/>
<feBlend mode="normal" in2="BackgroundImageFix" result="effect1_dropShadow"/>
<feBlend mode="normal" in="SourceGraphic" in2="effect1_dropShadow" result="shape"/>
</filter>
<filter id="filter2_d" x="12" y="0" width="72" height="97" filterUnits="userSpaceOnUse" color-interpolation-filters="sRGB">
<feFlood flood-opacity="0" result="BackgroundImageFix"/>
<feColorMatrix in="SourceAlpha" type="matrix" values="0 0 0 0 0 0 0 0 0 0 0 0 0 0 0 0 0 0 127 0" result="hardAlpha"/>
<feOffset dx="5" dy="8"/>
<feGaussianBlur stdDeviation="2"/>
<feColorMatrix type="matrix" values="0 0 0 0 0 0 0 0 0 0 0 0 0 0 0 0 0 0 0.25 0"/>
<feBlend mode="normal" in2="BackgroundImageFix" result="effect1_dropShadow"/>
<feBlend mode="normal" in="SourceGraphic" in2="effect1_dropShadow" result="shape"/>
</filter>
<clipPath id="clip0">
<rect width="102" height="112" fill="white"/>
</clipPath>
</defs>
</svg>
